<?xml version="1.0" encoding="UTF-8"?>
<svg width="537px" height="51px" viewBox="0 0 537 51" version="1.1" xmlns="http://www.w3.org/2000/svg" xmlns:xlink="http://www.w3.org/1999/xlink">
    <!-- Generator: Sketch 53.2 (72643) - https://sketchapp.com -->
    <title>Group 28</title>
    <desc>Created with Sketch.</desc>
    <defs>
        <polygon id="path-1" points="0.8755 0.5761 48.3595 0.5761 48.3595 51 0.8755 51"></polygon>
        <polygon id="path-3" points="0.6118 0.4544 46.2308 0.4544 46.2308 50 0.6118 50"></polygon>
        <polygon id="path-5" points="0.3781 0.4542 38.1551 0.4542 38.1551 50 0.3781 50"></polygon>
    </defs>
    <g id="Page-1" stroke="none" stroke-width="1" fill="none" fill-rule="evenodd">
        <g id="Group-28" transform="translate(0.000000, -1.000000)">
            <path d="M13.6382,30.0132 L15.9642,30.0132 C24.8822,30.0132 29.2702,25.5182 29.2702,17.0242 C29.2702,8.2482 25.8732,3.8232 16.7422,3.8232 L13.6382,3.8232 L13.6382,30.0132 Z M18.5122,31.9602 L13.6382,31.9602 L13.6382,44.1462 C13.6382,49.0302 15.4572,50.2332 18.4292,50.5162 L18.4292,51.4242 L0.0002,51.4242 L0.0002,50.5162 C2.9722,50.2332 4.7902,49.0302 4.7902,44.1462 L4.7902,9.0862 C4.7902,4.2012 2.9722,3.0692 0.0002,2.7862 L0.0002,1.8782 L19.0072,1.8782 C32.3142,1.8782 38.2602,8.6022 38.2602,16.7422 C38.2602,25.5892 31.2522,31.9602 18.5122,31.9602 L18.5122,31.9602 Z" id="Fill-1" fill="#020303"></path>
            <g id="Group-5" transform="translate(32.000000, 0.424300)">
                <mask id="mask-2" fill="white">
                    <use xlink:href="#path-1"></use>
                </mask>
                <g id="Clip-4"></g>
                <path d="M13.6875,34.7451 L29.7775,34.7451 L21.9805,12.2821 L13.6875,34.7451 Z M30.5445,36.5611 L12.9915,36.5611 L10.7265,42.7181 C9.0285,47.3901 9.6425,49.8081 15.0925,50.0921 L15.0925,51.0001 L0.8755,51.0001 L0.8755,50.0921 C5.2645,49.8081 6.7995,47.4611 8.5685,42.6471 L24.2695,0.5761 L26.5945,0.5841 L42.2935,42.7881 C44.0635,47.6031 44.9615,49.8791 48.3595,50.0921 L48.3595,51.0001 L30.0005,51.0001 L30.0005,50.0921 C33.3975,49.8791 34.5795,48.0971 32.5265,42.2231 L30.5445,36.5611 Z" id="Fill-3" fill="#020303" mask="url(#mask-2)"></path>
            </g>
            <g id="Group-8" transform="translate(131.000000, 1.424300)">
                <mask id="mask-4" fill="white">
                    <use xlink:href="#path-3"></use>
                </mask>
                <g id="Clip-7"></g>
                <path d="M22.9668,19.4014 L38.6088,42.1424 C42.4308,47.4514 43.8948,48.7384 46.2308,49.0214 L46.2308,50.0004 L33.8658,50.0004 L17.2718,25.9554 L13.7078,30.0054 L12.7838,27.9494 L30.4718,8.0284 C33.1608,4.9834 33.0418,1.7284 28.8648,1.0904 L28.8648,0.4544 L43.9448,0.4544 L43.9448,1.4324 C37.9268,1.9994 35.8968,4.4184 32.6408,8.0984 L22.9668,19.4014 Z M5.4028,8.0034 C5.4028,3.1194 3.5848,1.6454 0.6118,1.3614 L0.6118,0.4544 L19.0418,0.4544 L19.0418,1.3614 C16.0698,1.6454 14.2508,3.1194 14.2508,8.0034 L14.2508,42.4514 C14.2508,47.3344 16.0698,48.8084 19.0418,49.0914 L19.0418,50.0004 L0.6118,50.0004 L0.6118,49.0914 C3.5848,48.8084 5.4028,47.3344 5.4028,42.4514 L5.4028,8.0034 Z" id="Fill-6" fill="#020303" mask="url(#mask-4)"></path>
            </g>
            <g id="Group-11" transform="translate(182.000000, 1.424300)">
                <mask id="mask-6" fill="white">
                    <use xlink:href="#path-5"></use>
                </mask>
                <g id="Clip-10"></g>
                <path d="M14.0171,22.7612 L17.0511,22.7612 C24.0581,22.7612 28.1041,20.8512 28.6701,14.4092 L29.8611,14.4092 L29.8611,32.7882 L28.6701,32.7882 C28.1041,26.3472 24.0581,24.7072 17.0511,24.7072 L14.0171,24.7072 L14.0171,48.0532 L18.5371,48.0532 C26.3931,48.0532 34.5571,44.1962 36.8231,35.3472 L38.1551,35.3472 L35.9491,50.0002 L0.3781,50.0002 L0.3781,49.0922 C3.3511,48.8082 5.1691,47.6052 5.1691,42.7212 L5.1691,7.7322 C5.1691,2.8482 3.3511,1.6452 0.3781,1.3622 L0.3781,0.4542 L34.7451,0.4542 L36.7391,12.4872 L35.4771,12.4872 C31.6561,4.6292 25.2611,2.3992 19.1741,2.3992 L14.0171,2.3992 L14.0171,22.7612 Z" id="Fill-9" fill="#020303" mask="url(#mask-6)"></path>
            </g>
            <path d="M97.8423,3.8232 L97.8423,28.5982 L99.7313,28.5982 C108.4373,28.5982 112.6833,24.5272 112.6833,16.0332 C112.6833,7.9642 109.2153,3.8232 100.5093,3.8232 L97.8423,3.8232 Z M102.4913,30.5442 L102.2793,30.5442 L97.8423,30.5442 L97.8423,44.1462 C97.8423,49.0302 99.6593,50.2332 102.6333,50.5162 L102.6333,51.4242 L84.2033,51.4242 L84.2033,50.5162 C87.1763,50.2332 88.9943,49.0302 88.9943,44.1462 L88.9943,9.3572 C88.9943,4.4722 87.1763,3.0692 84.2033,2.7862 L84.2033,1.8782 L102.7753,1.8782 C115.8683,1.8782 121.6733,8.1772 121.6733,15.6792 C121.6733,22.0502 117.9213,27.0752 110.9853,29.3402 L119.6903,43.9912 C122.0973,48.0282 124.1993,50.3032 126.8883,50.5162 L126.8883,51.4242 L114.4533,51.4242 L102.4913,30.5442 Z" id="Fill-12" fill="#020303"></path>
            <path d="M238.1929,3.8232 L238.1929,28.5982 L240.0819,28.5982 C248.7879,28.5982 253.0349,24.5272 253.0349,16.0332 C253.0349,7.9642 249.5669,3.8232 240.8609,3.8232 L238.1929,3.8232 Z M242.8429,30.5442 L242.6299,30.5442 L238.1929,30.5442 L238.1929,44.1462 C238.1929,49.0302 240.0109,50.2332 242.9839,50.5162 L242.9839,51.4242 L224.5539,51.4242 L224.5539,50.5162 C227.5279,50.2332 229.3449,49.0302 229.3449,44.1462 L229.3449,9.3572 C229.3449,4.4722 227.5279,3.0692 224.5539,2.7862 L224.5539,1.8782 L243.1259,1.8782 C256.2199,1.8782 262.0239,8.1772 262.0239,15.6792 C262.0239,22.0502 258.2719,27.0752 251.3359,29.3402 L260.0419,43.9912 C262.4479,48.0282 264.5489,50.3032 267.2389,50.5162 L267.2389,51.4242 L254.8039,51.4242 L242.8429,30.5442 Z" id="Fill-14" fill="#020303"></path>
            <path d="M282.3242,43.8403 L294.1672,43.8403 C298.2672,43.8403 301.6092,40.5303 301.6092,36.3003 C301.6092,32.0373 298.3262,28.7853 294.0062,28.7853 L282.3242,28.7853 L282.3242,43.8403 Z M282.3242,21.7023 L292.7422,21.7023 C296.2452,21.7023 299.2632,18.8173 299.2632,15.0213 C299.2632,11.2243 295.9402,8.6463 292.7902,8.6463 L282.3242,8.6463 L282.3242,21.7023 Z M273.8242,1.5643 L294.8372,1.5643 C301.9772,1.5643 308.5752,5.9483 308.5752,12.8353 C308.5752,18.3023 305.9112,22.6563 300.9092,24.4893 C306.6552,25.9753 310.6832,30.5363 310.6832,37.7263 C310.6832,44.9153 303.8152,51.2973 294.7822,51.2973 L273.8242,51.2973 L273.8242,1.5643 Z" id="Fill-16" fill="#020303"></path>
            <polygon id="Fill-18" fill="#020303" points="441.3516 51.3013 451.7036 51.3013 431.4966 22.1143 449.8066 1.5963 439.4556 1.5963 420.6246 22.5603 420.6246 1.5963 411.7786 1.5963 411.7786 51.3013 420.6246 51.3013 420.6246 34.2963 425.6676 28.6463"></polygon>
            <polygon id="Fill-20" fill="#020303" points="466.5459 43.3589 466.5459 28.9459 485.7559 28.9459 485.7559 21.5069 466.5459 21.5069 466.5459 9.3969 489.9549 9.3969 489.9549 1.4969 458.6749 1.4969 458.6749 1.5259 457.6979 1.5259 457.6979 51.2299 458.6749 51.2299 458.6749 51.2579 490.2279 51.2579 490.2279 43.3589"></polygon>
            <path d="M374.1602,8.6338 L384.3982,8.6338 C389.8192,8.6338 392.8772,11.8488 392.8772,17.3238 C392.8772,22.7988 389.7022,26.3008 384.3982,26.3008 L374.1602,26.3008 L374.1602,8.6338 Z M404.6472,51.3008 L391.2842,31.9968 C397.1242,29.6248 401.8922,24.3838 401.8922,17.5918 C401.8922,8.2218 394.9842,1.5478 385.9952,1.5478 L365.6562,1.5478 L365.6562,51.3008 L374.1602,51.3008 L374.1602,33.3858 L381.8942,33.3858 L394.2972,51.3008 L404.6472,51.3008 Z" id="Fill-22" fill="#020303"></path>
            <path d="M505.9688,8.6338 L516.2078,8.6338 C521.6288,8.6338 524.6868,11.8488 524.6868,17.3238 C524.6868,22.7988 521.5118,26.3008 516.2078,26.3008 L505.9688,26.3008 L505.9688,8.6338 Z M536.4578,51.3008 L523.0928,31.9968 C528.9338,29.6248 533.7028,24.3838 533.7028,17.5918 C533.7028,8.2218 526.7938,1.5478 517.8038,1.5478 L497.4658,1.5478 L497.4658,51.3008 L505.9688,51.3008 L505.9688,33.3858 L513.7038,33.3858 L526.1068,51.3008 L536.4578,51.3008 Z" id="Fill-24" fill="#020303"></path>
            <path d="M329.165,32.3203 L335.637,12.7683 L342.861,32.3203 L329.165,32.3203 Z M349.882,51.3173 L359.561,51.3173 L341.075,1.2893 L339.437,1.2893 L331.402,1.2893 L331.394,1.2893 L331.399,1.2993 L314.03,51.3173 L322.877,51.3173 L326.753,39.6073 L345.555,39.6073 L349.882,51.3173 Z" id="Fill-26" fill="#020303"></path>
        </g>
    </g>
</svg>